<?xml version="1.0" encoding="utf-8"?>
<!-- Uploaded to: SVG Repo, www.svgrepo.com, Generator: SVG Repo Mixer Tools -->
<svg fill="white" width="17px" height="17px" viewBox="0 0 32 32" version="1.1" xmlns="http://www.w3.org/2000/svg">
<title>expand</title>
<path d="M12 28.75h-8.75v-8.75c0-0.69-0.56-1.25-1.25-1.25s-1.25 0.56-1.25 1.25v0 10c0 0.69 0.56 1.25 1.25 1.25h10c0.69 0 1.25-0.56 1.25-1.25s-0.56-1.25-1.25-1.25v0zM30 18.75c-0.69 0.001-1.249 0.56-1.25 1.25v8.75h-8.75c-0.69 0-1.25 0.56-1.25 1.25s0.56 1.25 1.25 1.25v0h10c0.69-0.001 1.249-0.56 1.25-1.25v-10c-0.001-0.69-0.56-1.249-1.25-1.25h-0zM12 0.75h-10c-0.69 0-1.25 0.56-1.25 1.25v0 10c0 0.69 0.56 1.25 1.25 1.25s1.25-0.56 1.25-1.25v0-8.75h8.75c0.69 0 1.25-0.56 1.25-1.25s-0.56-1.25-1.25-1.25v0zM30 0.75h-10c-0.69 0-1.25 0.56-1.25 1.25s0.56 1.25 1.25 1.25v0h8.75v8.75c0 0.69 0.56 1.25 1.25 1.25s1.25-0.56 1.25-1.25v0-10c-0-0.69-0.56-1.25-1.25-1.25h-0z"></path>
</svg>