<svg enable-background="new 0 0 64 64" height="20" viewBox="0 0 64 64" width="20" xmlns="http://www.w3.org/2000/svg"><g fill="#fff"><path d="m60 0h-56c-2.211 0-4 1.789-4 4v56c0 2.211 1.789 4 4 4h56c2.211 0 4-1.789 4-4v-56c0-2.211-1.789-4-4-4zm-7 54h-42c-.553 0-1-.447-1-1s.447-1 1-1h42c.553 0 1 .447 1 1s-.447 1-1 1zm0-6h-42c-.553 0-1-.447-1-1s.447-1 1-1h42c.553 0 1 .447 1 1s-.447 1-1 1zm-42-20h18c.553 0 1 .447 1 1s-.447 1-1 1h-18c-.553 0-1-.447-1-1s.447-1 1-1zm-1-5c0-.553.447-1 1-1h18c.553 0 1 .447 1 1s-.447 1-1 1h-18c-.553 0-1-.447-1-1zm1 11h18c.553 0 1 .447 1 1s-.447 1-1 1h-18c-.553 0-1-.447-1-1s.447-1 1-1zm0 6h18c.553 0 1 .447 1 1s-.447 1-1 1h-18c-.553 0-1-.447-1-1s.447-1 1-1zm43 1c0 .553-.447 1-1 1h-18c-.553 0-1-.447-1-1v-18c0-.553.447-1 1-1h18c.553 0 1 .447 1 1zm8-29h-60v-8c0-1.104.896-2 2-2h56c1.104 0 2 .896 2 2z"/><path d="m7 4c-1.657 0-3 1.343-3 3s1.343 3 3 3 3-1.343 3-3-1.343-3-3-3zm0 4c-.553 0-1-.447-1-1s.447-1 1-1 1 .447 1 1-.447 1-1 1z"/><path d="m33 4h-18c-1.657 0-3 1.343-3 3s1.343 3 3 3h18c1.657 0 3-1.343 3-3s-1.343-3-3-3zm0 4h-18c-.553 0-1-.447-1-1s.447-1 1-1h18c.553 0 1 .447 1 1s-.447 1-1 1z"/></g></svg>