<!DOCTYPE svg PUBLIC "-//W3C//DTD SVG 1.1//EN" "http://www.w3.org/Graphics/SVG/1.1/DTD/svg11.dtd">
<!-- Uploaded to: SVG Repo, www.svgrepo.com, Transformed by: SVG Repo Mixer Tools -->
<svg width="20px" height="20px" viewBox="0 0 24 24" fill="none" xmlns="http://www.w3.org/2000/svg">

<g id="SVGRepo_bgCarrier" stroke-width="0"/>

<g id="SVGRepo_tracerCarrier" stroke-linecap="round" stroke-linejoin="round"/>

<g id="SVGRepo_iconCarrier"> <path d="M2 3H4.5L6.5 17H17C18.1046 17 19 17.8954 19 19C19 20.1046 18.1046 21 17 21C15.8954 21 15 20.1046 15 19M9 5H21.0001L19.0001 11M18 14H6.07141M11 19C11 20.1046 10.1046 21 9 21C7.89543 21 7 20.1046 7 19C7 17.8954 7.89543 17 9 17C10.1046 17 11 17.8954 11 19Z" stroke="#ffffff" stroke-width="1.5" stroke-linecap="round" stroke-linejoin="round"/> </g>

</svg>