<?xml version="1.0" encoding="utf-8"?>

<!-- Uploaded to: SVG Repo, www.svgrepo.com, Generator: SVG Repo Mixer Tools -->
<svg width="32px" height="32px" viewBox="-13.5 0 80 80" xmlns="http://www.w3.org/2000/svg">
  <g id="App_design" data-name="App design" transform="translate(-254.07 -70.142)">
    <g id="Group_6" data-name="Group 6">
      <g id="Group_5" data-name="Group 5">
        <g id="Group_4" data-name="Group 4">
          <g id="Group_3" data-name="Group 3">
            <path id="Path_4" data-name="Path 4" d="M307.07,78.142v64a8.01,8.01,0,0,1-8,8h-37a8.011,8.011,0,0,1-8-8v-64a8.01,8.01,0,0,1,8-8h37A8.009,8.009,0,0,1,307.07,78.142Zm-6,64v-8h-41v8a2.032,2.032,0,0,0,2,2h37A2.026,2.026,0,0,0,301.07,142.142Zm0-14v-50a2.025,2.025,0,0,0-2-2h-37a2.032,2.032,0,0,0-2,2v50Z" fill="#104386"/>
            <path id="Path_5" data-name="Path 5" d="M301.07,78.142v50h-41v-50a2.032,2.032,0,0,1,2-2h37A2.025,2.025,0,0,1,301.07,78.142Zm-4.51,40.5v-34.5a3,3,0,0,0-3-3H267.58a3,3,0,0,0-3,3v34.5a3,3,0,0,0,3,3h25.98A3,3,0,0,0,296.56,118.642Z" fill="teal"/>
            <path id="Path_6" data-name="Path 6" d="M296.56,84.142v34.5a3,3,0,0,1-3,3H267.58a3,3,0,0,1-3-3v-34.5a3,3,0,0,1,3-3h25.98A3,3,0,0,1,296.56,84.142Zm-6,31.5v-7.09h-7.99v7.09Zm0-13.09V87.142h-7.99v15.41Zm-13.99,13.09v-28.5h-5.99v28.5Z" fill="#104386"/>
            <rect id="Rectangle_3" data-name="Rectangle 3" width="7.99" height="7.089" transform="translate(282.57 108.552)" fill="#ffffff"/>
            <rect id="Rectangle_4" data-name="Rectangle 4" width="7.99" height="15.411" transform="translate(282.57 87.142)" fill="teal"/>
            <path id="Path_7" data-name="Path 7" d="M280.57,136.462a2.84,2.84,0,1,1-2.839,2.84A2.837,2.837,0,0,1,280.57,136.462Z" fill="#104386"/>
            <path id="Path_8" data-name="Path 8" d="M299.07,144.142h-18.5v-2a2.84,2.84,0,0,0,0-5.68v-2.32h20.5v8A2.026,2.026,0,0,1,299.07,144.142Z" fill="teal"/>
            <path id="Path_9" data-name="Path 9" d="M280.57,144.142h-18.5a2.032,2.032,0,0,1-2-2v-8h20.5v2.32a2.84,2.84,0,0,0,0,5.68Z" fill="teal"/>
            <rect id="Rectangle_5" data-name="Rectangle 5" width="5.99" height="28.5" transform="translate(270.58 87.142)" fill="#ffffff"/>
          </g>
        </g>
      </g>
    </g>
  </g>
</svg>